<svg width="17" height="16" viewBox="0 0 17 16" xmlns="http://www.w3.org/2000/svg"><path d="M8.2964 0C3.715 0 0 3.6723 0 8.2025c0 3.6241 2.3772 6.6988 5.6736 7.7834.4146.076.5668-.178.5668-.3946 0-.1956-.0077-.8417-.0113-1.5271-2.308.4962-2.795-.9678-2.795-.9678-.3774-.9481-.9212-1.2002-.9212-1.2002-.7527-.5091.0567-.4987.0567-.4987.8331.058 1.2718.8453 1.2718.8453.74 1.254 1.9408.8915 2.4143.6819.0744-.5302.2894-.892.5267-1.0968-1.8427-.2075-3.7799-.9108-3.7799-4.0538 0-.8955.3241-1.6272.8548-2.2017-.0861-.2065-.37-1.0408.0804-2.1707 0 0 .6967-.2204 2.2821.8408.6618-.1817 1.3715-.2729 2.0766-.276.705.0031 1.4153.0943 2.0783.276 1.5835-1.0612 2.2792-.8408 2.2792-.8408.4516 1.1299.1675 1.9642.0814 2.1707.5319.5745.8538 1.3062.8538 2.2017 0 3.1505-1.9408 3.8442-3.7882 4.0472.2975.2546.5627.7538.5627 1.519 0 1.0975-.0096 1.9808-.0096 2.251 0 .2183.1493.474.5698.3935 3.2947-1.0858 5.6688-4.1594 5.6688-7.7823C16.5926 3.6723 12.878 0 8.2964 0" fill="#FFF" fill-rule="evenodd"/></svg>