<svg xmlns="http://www.w3.org/2000/svg" width="24" height="24" viewBox="0 0 24 24">
    <g fill="none" fill-rule="evenodd">
        <g fill="#2E3C43">
            <g>
                <g>
                    <g>
                        <path d="M21 14v6c0 .553-.447 1-1 1h-6v-2h5v-5h2zM5 14v5h5v2H4c-.553 0-1-.448-1-1v-6h2zM20 3c.553 0 1 .448 1 1v6h-2V5h-5V3h6zM10 3v2H5v5H3V4c0-.552.447-1 1-1h6z" transform="translate(-1246 -742) translate(508 208) translate(732 528) translate(6 6)"/>
                    </g>
                </g>
            </g>
        </g>
    </g>
</svg>
