<svg width="120px" height="48px" viewBox="388 665 82 32" version="1.1" xmlns="http://www.w3.org/2000/svg" xmlns:xlink="http://www.w3.org/1999/xlink">
  <g id="logo" stroke="none" stroke-width="1" fill="none" fill-rule="evenodd" transform="translate(388.000000, 665.000000)">
    <path d="M66,32 C74.836556,32 82,24.836556 82,16 C82,7.163444 74.836556,0 66,0 C57.163444,0 50,7.163444 50,16 C50,24.836556 57.163444,32 66,32 Z" id="Symbol" fill-opacity="0.100000001" fill="#162945"></path>
    <path d="M5.7551281,21.4831351 C7.99692789,21.4831351 9.29251349,20.4759018 10.2532848,19.1078685 L8.12794217,17.5444018 C7.51654222,18.3111018 6.89058514,18.8222351 5.8279138,18.8222351 C4.40131393,18.8222351 3.39687117,17.5895018 3.39687117,16.0110018 L3.39687117,15.9809351 C3.39687117,14.4475351 4.40131393,13.1847351 5.8279138,13.1847351 C6.80324229,13.1847351 7.4728708,13.6808351 8.05515646,14.4174685 L10.1804991,12.7187018 C9.27795635,11.4408685 7.93869933,10.5388685 5.85702809,10.5388685 C2.77091408,10.5388685 0.5,12.9442018 0.5,16.0110018 L0.5,16.0410685 C0.5,19.1830351 2.84369979,21.4831351 5.7551281,21.4831351 L5.7551281,21.4831351 Z M15.0972624,21.2726685 L18.0523621,21.2726685 L18.7802192,19.3784685 L22.7252045,19.3784685 L23.4530616,21.2726685 L26.4809471,21.2726685 L22.1429189,10.6741685 L19.4207334,10.6741685 L15.0972624,21.2726685 Z M19.6099763,17.1084351 L20.7599904,14.1318351 L21.8954475,17.1084351 L19.6099763,17.1084351 Z M31.979996,21.2726685 L34.8040814,21.2726685 L34.8040814,18.0856018 L36.0559956,18.0856018 L38.1085526,21.2726685 L41.3547951,21.2726685 L38.9237525,17.6045351 C40.1902238,17.0483018 41.0199809,15.9809351 41.0199809,14.3573351 L41.0199809,14.3272685 C41.0199809,13.2899685 40.7142809,12.4932018 40.1174381,11.8768351 C39.4332524,11.1702685 38.356024,10.7493351 36.7984098,10.7493351 L31.979996,10.7493351 L31.979996,21.2726685 Z M34.8040814,15.8005351 L34.8040814,13.2599018 L36.6673956,13.2599018 C37.5990526,13.2599018 38.1958954,13.6808351 38.1958954,14.5227018 L38.1958954,14.5527685 C38.1958954,15.3194685 37.6281669,15.8005351 36.6819527,15.8005351 L34.8040814,15.8005351 Z M49.4450152,21.2726685 L52.2691007,21.2726685 L52.2691007,13.3050018 L55.3261004,13.3050018 L55.3261004,10.7493351 L46.4025727,10.7493351 L46.4025727,13.3050018 L49.4450152,13.3050018 L49.4450152,21.2726685 Z M66,21.5 C69.0375661,21.5 71.5,19.0375661 71.5,16 C71.5,12.9624339 69.0375661,10.5 66,10.5 C62.9624339,10.5 60.5,12.9624339 60.5,16 C60.5,19.0375661 62.9624339,21.5 66,21.5 Z" id="Logotype" fill="#162945"></path>
  </g>
</svg>