<svg width="16" height="16" viewBox="0 0 16 16" xmlns="http://www.w3.org/2000/svg"><path d="M0 1.1461V14.854C0 15.4869.5294 16 1.1824 16h13.6352C15.4706 16 16 15.4869 16 14.8539V1.146C16 .5133 15.4706 0 14.8176 0H1.1824C.5294 0 0 .5133 0 1.1461zm4.8501 12.2476H2.4334v-7.225h2.4167v7.225zM3.6418 5.1823H3.626c-.811 0-1.3354-.5548-1.3354-1.248 0-.709.5405-1.2484 1.3671-1.2484.8268 0 1.3356.5394 1.3513 1.2483 0 .6933-.5245 1.2481-1.3672 1.2481zm2.5455 8.2114s.0318-6.547 0-7.225H8.604v1.0479H8.588c.318-.4933.8903-1.2174 2.194-1.2174 1.59 0 2.7822 1.0326 2.7822 3.2518v4.1427h-2.4164V9.5285c0-.9713-.3498-1.6338-1.2243-1.6338-.6676 0-1.0652.4468-1.24.8783-.0638.1543-.0795.37-.0795.586v4.0347H6.1873z" fill="#2E3C43" fill-rule="evenodd"/></svg>