<svg width="16" height="13" viewBox="0 0 16 13" xmlns="http://www.w3.org/2000/svg"><path d="M0 11.3482c.2568.0299.5181.0452.783.0452 1.538 0 2.9534-.5166 4.0768-1.3833-1.4364-.026-2.6487-.9603-3.0664-2.2441a3.336 3.336 0 001.4824-.0554C1.7741 7.4138.6427 6.1077.6427 4.5421c0-.0136 0-.0271.0002-.0406a3.309 3.309 0 001.4869.4041C1.249 4.3262.6694 3.3371.6694 2.216A3.178 3.178 0 011.1138.5915c1.619 1.955 4.0378 3.2414 6.766 3.3762a3.1958 3.1958 0 01-.085-.7364C7.7948 1.4468 9.2645 0 11.0774 0c.9442 0 1.7973.3924 2.3961 1.0205A6.6374 6.6374 0 0015.558.2363c-.2451.7546-.7656 1.3878-1.4434 1.7878A6.6447 6.6447 0 0016 1.5152a6.615 6.615 0 01-1.638 1.6728c.0063.1385.0095.278.0095.418 0 4.2701-3.3017 9.194-9.3396 9.194-1.8537 0-3.5792-.535-5.0319-1.4518z" fill="#2E3C43" fill-rule="evenodd"/></svg>