<svg width="48" height="48" viewBox="0 0 48 48" xmlns="http://www.w3.org/2000/svg"><g fill="none" fill-rule="evenodd"><path d="M10.2555 0h27.489c3.566 0 4.8592.3713 6.1629 1.0685 1.3037.6973 2.3268 1.7204 3.024 3.0241C47.6288 5.3963 48 6.6895 48 10.2556v27.4889c0 3.566-.3713 4.8592-1.0685 6.1629-.6973 1.3037-1.7204 2.3268-3.0241 3.024C42.6037 47.6288 41.3105 48 37.7444 48H10.2556c-3.566 0-4.8592-.3713-6.1629-1.0685-1.3037-.6973-2.3268-1.7204-3.024-3.0241C.3712 42.6037 0 41.3105 0 37.7444V10.2556c0-3.566.3713-4.8592 1.0685-6.1629.6973-1.3037 1.7204-2.3268 3.0241-3.024C5.3963.3712 6.6895 0 10.2556 0z" fill="#F88E00"/><g fill="#FFF"><path opacity=".4" d="M35 17.0313L24 11l-11 6.0313v12.9374L24 36l11-6.0313z"/><path fill-opacity=".4" opacity=".8" d="M24 23.04L13 17v12.96L24 36l11-6.04V17z"/><path fill-rule="nonzero" d="M24 23.04V36l11-6.04V17z"/></g></g></svg>