<?xml version="1.0" encoding="UTF-8"?>
<svg width="48px" height="48px" viewBox="0 0 48 48" version="1.1" xmlns="http://www.w3.org/2000/svg" xmlns:xlink="http://www.w3.org/1999/xlink">
    <title>featured</title>
    <g id="Page-1" stroke="none" stroke-width="1" fill="none" fill-rule="evenodd">
        <g id="featured">
            <path d="M0,0 L44,0 C46.209139,-4.05812251e-16 48,1.790861 48,4 L48,48 L48,48 L0,0 Z" id="Rectangle" fill="#1FAC06"></path>
            <g id="Fill-290" transform="translate(28.000000, 8.000000)" fill="#FFFFFF">
                <path d="M9.6,12 C9.4842,12 9.3684,11.9664 9.267,11.8992 L6,9.7212 L2.733,11.8992 C2.5242,12.0384 2.25,12.0336 2.0466,11.8848 C1.8432,11.7366 1.7538,11.4768 1.8234,11.235 L2.9262,7.3746 L0.1758,4.6242 C0.0042,4.4532 -0.0474,4.1946 0.0456,3.9708 C0.1386,3.7464 0.3576,3.6 0.6,3.6 L3.8292,3.6 L5.463,0.3318 C5.6664,-0.0744 6.3336,-0.0744 6.537,0.3318 L8.1708,3.6 L11.4,3.6 C11.6424,3.6 11.8614,3.7464 11.9544,3.9708 C12.0474,4.1946 11.9958,4.4532 11.8242,4.6242 L9.0738,7.3746 L10.1766,11.235 C10.2462,11.4768 10.1568,11.7366 9.9534,11.8848 C9.8484,11.9616 9.7242,12 9.6,12" id="Path"></path>
            </g>
        </g>
    </g>
</svg>