<svg height="16" viewBox="0 0 16 16" width="16" xmlns="http://www.w3.org/2000/svg"><path d="m16 8c0 4.418278-3.581722 8-8 8s-8-3.581722-8-8 3.581722-8 8-8 8 3.581722 8 8zm-15.31914894 0c0 4.0422543 3.2768946 7.3191489 7.31914894 7.3191489 4.0422543 0 7.3191489-3.2768946 7.3191489-7.3191489 0-4.04225434-3.2768946-7.31914894-7.3191489-7.31914894-4.04225434 0-7.31914894 3.2768946-7.31914894 7.31914894zm7.31914894 2.5531915c-1.41008872 0-2.55319149-1.14310278-2.55319149-2.5531915s1.14310277-2.55319149 2.55319149-2.55319149 2.5531915 1.14310277 2.5531915 2.55319149-1.14310278 2.5531915-2.5531915 2.5531915z" fill-rule="evenodd"/></svg>